<?xml version="1.0" encoding="UTF-8"?>
<svg width="32px" height="32px" viewBox="0 0 32 32" version="1.1" xmlns="http://www.w3.org/2000/svg" xmlns:xlink="http://www.w3.org/1999/xlink">
    <!-- Generator: Sketch 52.6 (67491) - http://www.bohemiancoding.com/sketch -->
    <title>mine-like</title>
    <desc>Created with Sketch.</desc>
    <g id="mine-like" stroke="none" stroke-width="1" fill="none" fill-rule="evenodd">
        <g id="收藏">
            <rect id="Rectangle-9" stroke="#979797" stroke-width="1" fill="#D8D8D8" fill-rule="evenodd" opacity="0" x="0.5" y="0.5" width="31" height="31"></rect>
            <path d="M21.2542759,6 C19.5369213,6 17.9056559,6.858335 16.8009747,8.33624427 L15.995662,9.41364009 L15.1959371,8.3320902 C14.1089197,6.86200538 12.4675523,6 10.7457241,6 C7.59775268,6 5,8.82835775 5,12.3409816 C5,14.0828446 5.49075831,15.2424468 6.79944001,17.2777991 C7.85056622,18.9235338 9.71567083,20.9121603 12.0628992,23.0245386 C13.5265513,24.3417462 15.0729502,25.6039101 15.7558418,26.114089 C15.830318,26.1726136 15.910962,26.2 16,26.2 C16.089038,26.2 16.169682,26.1726136 16.2638128,26.0990339 C16.8948328,25.6279609 18.4671852,24.3401012 19.9312854,23.0200477 C22.2772399,20.9049017 24.1448083,18.9162242 25.2021974,17.275244 C26.5092417,15.2424468 27,14.0828446 27,12.3409816 C27,8.82835775 24.4022473,6 21.2542759,6 Z" id="路径" stroke="#A8A8A8" stroke-width="2"></path>
        </g>
    </g>
</svg>